<?xml version="1.0" standalone="no"?>
<!DOCTYPE svg PUBLIC "-//W3C//DTD SVG 20010904//EN"
 "http://www.w3.org/TR/2001/REC-SVG-20010904/DTD/svg10.dtd">
<svg version="1.0" xmlns="http://www.w3.org/2000/svg"
 width="728.000000pt" height="724.000000pt" viewBox="0 0 728.000000 724.000000"
 preserveAspectRatio="xMidYMid meet">

<g transform="translate(0.000000,724.000000) scale(0.100000,-0.100000)"
fill="#000000" stroke="none">
<path d="M3323 5763 c9 -2 23 -2 30 0 6 3 -1 5 -18 5 -16 0 -22 -2 -12 -5z"/>
<path d="M3440 5740 c94 -23 197 -62 275 -103 l59 -32 -134 -6 c-256 -13 -447
-53 -660 -140 -109 -45 -318 -164 -307 -176 5 -4 154 73 177 92 47 39 260 122
281 109 25 -15 63 -11 159 16 195 54 435 83 630 75 101 -4 102 -4 35 6 -92 13
-128 25 -200 66 -33 19 -67 36 -75 38 -9 2 -34 11 -56 20 -52 22 -192 55 -229
54 -19 0 -2 -7 45 -19z"/>
<path d="M2786 5628 c-88 -66 -185 -181 -253 -299 -29 -51 -53 -98 -53 -104 0
-5 21 26 47 70 88 152 172 251 298 352 63 51 37 38 -39 -19z"/>
<path d="M3595 5536 c-213 -31 -394 -80 -458 -123 -53 -37 -40 -38 29 -3 56
28 103 38 117 24 3 -3 -27 -38 -67 -78 -76 -74 -92 -106 -79 -166 5 -27 3 -30
-21 -30 -14 0 -26 -4 -26 -10 0 -6 -33 -10 -77 -10 -140 0 -391 -28 -513 -57
-22 -5 -20 -1 15 30 22 19 36 39 32 44 -5 4 -28 -13 -52 -39 -33 -36 -50 -48
-72 -48 -16 0 -33 -4 -38 -9 -6 -5 -46 -21 -90 -36 -261 -87 -530 -288 -623
-467 -13 -23 -17 -34 -10 -24 203 298 532 481 998 553 130 20 581 24 635 6 23
-8 3 -9 -80 -6 -77 3 -106 1 -95 -6 13 -9 12 -11 -3 -11 -14 0 -17 -5 -12 -19
4 -14 0 -23 -14 -31 -11 -6 -18 -17 -15 -24 3 -9 -3 -17 -16 -21 -11 -4 -20
-12 -19 -18 4 -34 -2 -46 -18 -40 -17 6 -17 5 0 -14 9 -11 17 -29 17 -42 0
-29 -29 -39 -46 -16 -12 16 -14 16 -14 3 0 -9 -6 -19 -12 -21 -7 -3 2 -6 20
-6 17 -1 32 -5 32 -10 0 -13 -91 -78 -133 -96 -19 -8 -47 -29 -61 -47 -50 -62
-68 -78 -85 -78 -25 0 -51 -32 -51 -62 0 -14 -6 -31 -14 -37 -7 -6 -16 -26
-19 -44 -3 -17 -10 -44 -16 -59 l-10 -26 -40 20 c-32 16 -43 28 -55 65 -9 26
-16 57 -16 70 0 14 -4 32 -9 42 -14 25 7 109 30 124 10 6 19 20 19 31 0 15 -2
16 -15 6 -21 -17 -36 -2 -29 28 4 15 14 22 30 22 27 0 30 6 10 25 -10 10 -16
11 -25 2 -14 -14 -13 -14 0 57 11 64 4 136 -14 136 -7 0 -30 -8 -53 -17 l-42
-17 -21 -96 c-12 -52 -26 -124 -31 -159 -8 -57 -7 -67 11 -89 26 -34 24 -48
-11 -84 -18 -18 -30 -40 -30 -56 -1 -15 -3 -95 -6 -178 -18 -502 167 -1183
460 -1688 31 -54 55 -104 52 -110 -2 -6 -5 -3 -5 7 -1 10 -5 16 -10 13 -4 -3
-25 24 -46 59 -31 54 -40 63 -55 55 -9 -5 -19 -7 -22 -5 -3 3 -19 0 -35 -6
-27 -9 -31 -15 -30 -45 1 -46 -14 -58 -109 -93 l-81 -30 -23 41 c-13 23 -27
58 -31 77 -32 149 -57 213 -96 254 -23 23 -51 62 -63 87 -13 25 -31 57 -41 71
-20 28 -25 73 -14 131 8 39 -12 109 -25 89 -8 -14 -44 19 -64 57 -16 32 -81
102 -93 102 -18 0 -53 61 -65 109 -6 28 -14 48 -18 46 -11 -7 -50 207 -51 286
l-2 74 -10 -65 c-15 -101 19 -411 58 -525 10 -30 -46 37 -110 132 -179 264
-265 576 -226 816 5 30 4 44 -2 38 -11 -11 -27 -375 -17 -379 4 -2 5 -12 2
-24 -3 -12 -1 -19 5 -15 5 3 8 -5 5 -22 -2 -15 2 -34 10 -42 7 -8 13 -22 14
-31 3 -59 4 -63 15 -48 9 12 10 11 6 -7 -9 -41 151 -329 237 -428 63 -71 105
-133 121 -175 9 -25 23 -61 32 -81 l15 -36 -66 -100 c-103 -158 -154 -293
-142 -377 10 -63 70 -129 138 -152 72 -24 238 -15 373 20 55 14 105 26 112 26
7 0 47 -28 90 -63 214 -172 449 -292 697 -356 44 -12 89 -29 100 -40 73 -65
264 -173 384 -216 287 -102 598 -54 822 128 84 69 179 183 232 279 39 71 47
79 83 88 469 119 785 362 894 688 51 151 65 321 40 484 -14 90 -68 247 -120
352 -41 81 -101 180 -123 202 -7 7 -16 41 -20 76 -3 35 -12 86 -19 113 l-13
50 -8 -44 c-5 -32 -3 -48 8 -60 8 -9 17 -34 21 -56 l6 -40 -21 25 c-12 14 -45
54 -75 90 -53 64 -163 175 -134 135 7 -11 16 -22 19 -25 60 -63 54 -65 -10 -4
-349 332 -804 593 -1315 753 -153 47 -360 101 -393 101 -13 0 -20 4 -17 10 17
28 332 -42 580 -130 103 -36 245 -95 316 -131 52 -26 57 -27 52 -9 -3 11 -2
20 1 20 9 0 117 -70 144 -94 12 -11 22 -15 22 -9 0 5 -9 18 -20 28 -13 12 -20
31 -20 57 0 57 20 128 36 128 8 0 14 -6 14 -14 0 -8 7 -16 15 -20 11 -4 14
-13 9 -30 -9 -37 6 -54 22 -25 9 17 9 28 2 37 -16 19 -3 25 15 7 9 -8 22 -15
30 -15 7 0 24 -11 37 -25 13 -14 28 -25 33 -25 6 0 1 10 -10 23 -11 12 -24 33
-28 46 -7 23 -6 24 34 17 40 -6 41 -6 35 18 -8 35 33 61 81 52 28 -6 35 -4 35
9 0 8 2 15 5 15 3 0 35 -29 70 -64 65 -65 79 -98 53 -124 -6 -6 -9 -15 -5 -19
4 -3 14 2 22 13 14 19 14 18 15 -3 0 -13 8 -24 20 -28 11 -4 27 -17 36 -30 15
-23 61 -44 46 -21 -40 65 -121 174 -171 231 -33 39 -61 73 -61 76 0 8 201 57
270 65 42 6 50 9 35 16 -12 5 15 7 71 5 103 -3 144 -21 182 -78 75 -110 -47
-377 -314 -685 -40 -45 -49 -62 -40 -70 10 -9 26 3 67 49 156 173 294 382 334
505 25 79 18 169 -18 216 -44 57 -97 79 -202 84 -95 4 -247 -20 -362 -58 l-56
-18 -51 46 c-28 25 -62 55 -76 67 -42 34 -4 -10 68 -79 34 -33 62 -63 62 -67
0 -17 -42 6 -51 27 -4 13 -13 24 -18 24 -21 0 -111 93 -111 115 0 46 -305 228
-467 279 -205 64 -552 92 -758 62z m309 -156 c31 -31 -49 -64 -94 -40 -27 15
-42 2 -16 -14 11 -6 34 -27 52 -46 25 -25 30 -37 22 -47 -16 -20 -51 -17 -46
5 3 9 -3 26 -13 36 -18 19 -19 18 -34 -17 -8 -20 -15 -43 -15 -51 0 -8 -4 -17
-8 -20 -13 -8 -65 50 -60 66 3 7 -6 21 -19 31 -16 13 -23 29 -23 54 0 35 1 36
35 30 19 -3 37 -1 41 4 3 6 12 8 19 5 7 -2 16 1 19 9 6 16 123 12 140 -5z
m478 -5 c5 -25 -5 -31 -35 -19 -14 5 -13 8 1 25 22 25 29 24 34 -6z m-133 -1
c37 -8 42 -34 6 -34 -14 0 -25 5 -25 10 0 6 -6 10 -14 10 -8 0 -18 5 -21 10
-7 12 9 13 54 4z m229 -33 c3 -10 0 -12 -12 -8 -9 4 -16 2 -16 -3 0 -6 -19
-10 -42 -10 l-43 1 40 19 c45 22 66 22 73 1z m130 -244 c2 -10 -4 -19 -15 -23
-61 -19 -84 -36 -113 -86 -35 -62 -38 -107 -10 -133 11 -10 17 -21 14 -26 -7
-11 -54 8 -81 33 -27 25 -28 42 -9 80 12 22 28 76 30 99 2 20 68 59 99 59 20
0 39 5 42 11 10 15 39 6 43 -14z m-608 -230 c21 -14 21 -16 3 -26 -15 -9 -14
-10 14 -11 18 0 36 -6 40 -14 4 -7 24 -18 43 -25 42 -14 106 -68 114 -97 5
-17 0 -24 -23 -34 -30 -12 -37 -11 -106 16 -19 7 -19 7 -2 -13 9 -11 17 -31
17 -46 0 -25 37 -64 49 -50 3 3 0 8 -6 10 -15 5 -18 33 -4 33 5 0 22 -5 36
-10 24 -9 26 -8 20 11 -8 24 18 48 52 49 23 0 24 5 8 83 -3 14 1 16 18 11 35
-10 43 -22 30 -43 -13 -20 -8 -31 14 -31 7 0 13 7 13 15 0 8 22 26 50 40 58
29 60 30 60 9 0 -11 6 -14 20 -9 26 8 238 -105 397 -212 135 -91 319 -236 334
-265 8 -15 8 -19 -1 -13 -13 8 -41 -25 -33 -39 4 -5 2 -6 -4 -3 -5 3 -29 -13
-52 -37 -27 -28 -39 -46 -32 -51 6 -3 10 -1 9 6 -2 6 3 14 11 17 9 3 11 0 6
-9 -4 -8 21 14 57 49 l64 63 81 -83 c81 -83 109 -115 172 -196 28 -37 32 -48
26 -80 -4 -20 -14 -41 -23 -48 -13 -10 -17 -27 -15 -78 2 -77 -12 -96 -22 -30
-5 35 -10 44 -22 40 -11 -4 -13 -2 -9 9 3 8 1 15 -3 15 -10 0 -21 -25 -21 -47
0 -9 6 -13 15 -9 17 6 21 -9 5 -19 -6 -4 -7 -35 -4 -78 7 -88 -15 -150 -70
-193 -22 -18 -36 -38 -36 -51 0 -13 -5 -23 -10 -23 -6 0 -8 11 -4 25 8 32 -13
33 -27 1 -9 -18 -7 -30 6 -55 19 -37 14 -74 -16 -110 -19 -23 -20 -23 -34 -5
-8 10 -15 22 -15 27 0 4 -6 7 -14 7 -22 0 -26 -51 -8 -90 18 -37 22 -71 10
-80 -10 -8 3 -51 13 -44 12 7 11 1 -1 -31 l-10 -27 55 4 c60 3 74 -6 24 -16
-72 -14 -109 6 -123 68 -4 17 -16 42 -27 57 -25 36 -7 48 23 14 12 -14 26 -25
32 -25 6 0 5 5 -2 12 -7 7 -12 24 -12 38 0 14 -4 30 -10 36 -5 5 -6 24 -2 44
9 42 1 111 -11 93 -14 -22 -27 -14 -27 15 0 41 -22 83 -40 76 -8 -3 -20 -7
-25 -8 -6 -1 -31 -24 -55 -51 -25 -27 -52 -56 -61 -66 -9 -9 -19 -37 -23 -62
-6 -41 -38 -88 -52 -75 -8 9 -34 104 -49 178 -7 36 -14 59 -14 53 -2 -22 -31
-14 -40 10 -18 44 -50 60 -129 63 -46 1 -78 7 -82 15 -5 6 -17 9 -28 7 -23 -6
-82 25 -82 43 0 8 -4 8 -14 -1 -12 -9 -12 -17 -4 -35 6 -14 15 -22 19 -19 5 3
9 -4 9 -15 0 -28 37 -28 67 1 19 18 23 19 23 5 0 -9 14 -23 30 -32 17 -9 30
-21 30 -29 0 -25 -57 -91 -96 -111 -21 -11 -41 -23 -44 -26 -10 -12 -106 -57
-137 -63 -30 -7 -33 -5 -38 21 -17 75 -64 145 -93 135 -17 -5 -15 -37 3 -52 8
-7 15 -18 15 -24 0 -7 16 -28 36 -47 20 -18 40 -44 45 -56 10 -28 24 -28 88
-4 28 10 52 17 55 14 2 -3 -3 -26 -12 -51 -12 -36 -40 -70 -113 -142 -115
-113 -121 -123 -107 -176 21 -80 21 -98 -2 -127 -12 -15 -27 -27 -33 -27 -7 0
-24 -11 -38 -23 -21 -19 -25 -30 -21 -60 4 -32 1 -38 -22 -48 -14 -7 -26 -20
-26 -29 0 -9 -24 -40 -54 -69 -43 -40 -62 -51 -88 -51 -18 0 -48 -4 -66 -9
-43 -13 -62 -5 -62 25 0 13 -13 38 -29 56 -16 19 -33 52 -37 73 -4 22 -18 56
-30 75 -29 42 -30 64 -4 113 14 26 18 43 12 55 -5 9 -12 31 -15 48 -3 17 -22
47 -42 67 -24 24 -35 43 -31 53 3 9 6 22 6 30 0 8 16 24 35 35 19 12 33 25 30
29 -3 5 0 12 6 16 8 4 9 3 5 -4 -11 -18 0 -14 45 14 23 14 38 28 35 31 -3 4 0
13 7 21 9 11 4 11 -15 -2 -32 -21 -36 -28 -10 -20 14 5 14 3 -2 -10 -23 -19
-40 -21 -30 -4 11 18 -68 -32 -89 -56 -10 -12 -15 -15 -11 -7 4 9 3 12 -4 7
-6 -3 -13 -2 -16 2 -3 5 -16 7 -30 5 -17 -4 -27 1 -35 16 -13 23 -58 28 -92
10 -11 -6 -55 -12 -97 -13 -73 -2 -79 -1 -124 32 -27 19 -48 39 -48 46 0 7
-14 25 -31 42 -42 39 -53 70 -38 106 9 22 9 38 0 68 -10 34 -9 43 14 87 34 64
55 93 70 93 18 0 48 49 41 67 -4 10 6 27 27 47 18 17 36 38 39 47 5 13 16 16
51 12 31 -4 52 0 70 12 18 12 56 18 128 22 l102 5 -6 -40 c-6 -47 2 -56 55
-66 21 -4 41 -12 45 -19 8 -13 56 -37 73 -37 6 0 10 9 10 20 0 31 36 44 74 26
46 -22 108 -34 131 -25 11 4 30 5 43 2 31 -7 47 9 62 63 10 35 10 48 1 57 -9
9 -14 9 -19 1 -4 -7 -34 -11 -74 -10 -38 0 -64 2 -59 4 5 2 -2 15 -16 30 -13
15 -20 28 -14 30 6 2 8 8 5 13 -3 6 -12 5 -22 -3 -12 -9 -12 -6 2 9 17 21 17
23 2 29 -9 4 -26 3 -37 -2 -20 -9 -20 -10 1 -37 19 -23 19 -28 6 -33 -9 -3
-16 -13 -16 -21 0 -22 -34 -11 -39 12 -2 11 -12 32 -22 47 -11 14 -19 35 -19
45 0 21 -30 53 -67 72 -13 6 -23 18 -23 26 0 8 -6 15 -14 15 -8 0 -16 6 -19
13 -3 8 -7 7 -12 -5 -6 -16 37 -88 54 -88 3 0 22 -14 41 -31 29 -26 31 -30 13
-26 -25 5 -29 -2 -13 -21 6 -6 7 -10 4 -7 -8 5 -44 -39 -44 -53 0 -7 -11 -6
-30 1 -42 16 -39 37 5 37 52 0 45 27 -17 73 -28 21 -56 47 -62 59 -15 29 -30
32 -51 11 -10 -10 -33 -17 -54 -18 -26 0 -35 -4 -34 -15 2 -8 -11 -23 -27 -32
-19 -11 -33 -28 -36 -47 -4 -16 -16 -38 -28 -49 -25 -23 -101 -39 -111 -23 -3
6 -14 11 -24 11 -23 0 -32 41 -20 84 5 17 7 43 3 59 -6 31 -8 30 82 27 l61 -2
5 34 c6 36 -22 88 -48 88 -8 0 -14 7 -14 15 0 10 10 15 30 15 23 0 28 3 23 17
-5 13 -2 15 11 10 19 -8 56 12 56 30 0 6 8 14 18 18 11 3 24 17 31 31 7 16 17
24 26 20 9 -3 12 0 9 9 -4 9 5 16 29 20 37 7 38 9 22 76 -5 17 -1 31 10 42 28
28 43 21 39 -19 -2 -31 -1 -34 14 -22 9 7 18 13 20 14 5 3 -20 87 -28 97 -4 4
-18 -2 -32 -13 -38 -30 -67 -24 -74 15 -18 91 -10 126 30 149 38 21 85 78 118
142 17 36 36 68 40 70 18 11 7 24 -12 14 -26 -14 -25 -6 2 25 12 14 28 23 35
21 7 -3 13 -1 13 5 0 17 43 48 67 49 12 0 25 5 28 11 18 29 117 33 155 6z
m370 -92 c0 -8 -7 -15 -15 -15 -8 0 -15 7 -15 15 0 8 7 15 15 15 8 0 15 -7 15
-15z m-1216 -139 c21 -33 13 -51 -40 -80 -55 -31 -104 -26 -121 10 -8 17 -8
26 0 31 7 4 4 9 -7 13 -18 6 -18 7 0 24 17 18 18 18 31 0 11 -15 15 -16 22 -5
5 7 21 14 35 14 15 0 29 3 32 8 10 16 32 9 48 -15z m206 -286 c0 -5 -4 -10
-10 -10 -5 0 -10 -5 -10 -11 0 -6 9 -8 20 -4 23 7 26 -6 8 -34 -9 -15 -8 -22
4 -35 9 -8 24 -34 35 -56 10 -22 24 -40 32 -40 8 0 11 -6 6 -17 -4 -10 -8 -25
-9 -33 -3 -14 -63 -33 -78 -24 -3 2 -9 0 -13 -6 -3 -5 -16 -10 -27 -10 -20 0
-20 1 -5 18 19 20 23 37 7 27 -5 -3 -10 -2 -10 4 0 5 4 12 9 15 5 3 7 14 4 25
-3 13 2 20 17 24 19 5 20 8 9 20 -8 8 -18 14 -24 14 -5 -1 -9 6 -9 16 1 9 -4
17 -10 17 -7 0 -12 10 -11 23 1 12 -5 30 -13 40 -13 14 -13 20 -2 30 10 10 12
9 7 -5 -9 -25 10 -23 23 2 11 20 50 28 50 10z m-1003 -111 c-4 -13 7 -33 34
-61 38 -41 39 -44 34 -95 -5 -45 -4 -53 14 -63 14 -7 21 -21 21 -42 0 -26 -2
-29 -15 -18 -12 10 -15 10 -16 -1 0 -10 -2 -11 -6 -1 -2 6 -16 12 -30 12 -26
0 -26 7 3 78 12 30 12 32 -6 22 -10 -5 -20 -15 -23 -22 -10 -30 -17 7 -23 123
-4 96 -3 120 6 106 7 -10 10 -27 7 -38z m937 -8 c3 -5 3 -29 0 -54 -6 -40 -10
-45 -40 -55 -36 -11 -54 -1 -35 21 5 7 8 22 5 34 -10 37 52 84 70 54z m1836
-60 c-5 -11 -15 -23 -22 -27 -7 -5 -8 -2 -3 7 21 37 44 55 25 20z m-3563 -263
c-3 -8 -6 -5 -6 6 -1 11 2 17 5 13 3 -3 4 -12 1 -19z m3950 -75 c-3 -10 -5 -2
-5 17 0 19 2 27 5 18 2 -10 2 -26 0 -35z m-1913 -66 c-3 -10 -11 -16 -17 -14
-15 5 -21 33 -11 55 4 9 6 21 5 26 -1 5 1 16 5 25 9 21 26 -66 18 -92z m1981
13 c59 -101 109 -224 142 -348 34 -130 36 -325 4 -447 -66 -249 -218 -426
-491 -568 -114 -60 -400 -162 -400 -143 0 27 36 75 110 144 85 79 186 194 244
277 l28 40 -40 -42 c-43 -47 -59 -55 -42 -22 7 11 18 43 26 70 9 30 30 65 57
93 23 25 58 68 77 97 19 29 45 63 57 76 36 38 45 62 38 102 -6 35 -4 39 18 45
21 5 28 18 46 85 52 192 62 255 68 439 3 100 7 182 9 182 1 0 23 -36 49 -80z
m-69 -32 c-4 -28 -15 -63 -25 -77 -10 -14 -21 -33 -25 -41 -3 -8 -4 3 -1 25 2
22 9 41 14 43 5 2 15 25 22 53 17 64 23 63 15 -3z m-2036 22 c0 -5 -4 -10 -10
-10 -5 0 -10 5 -10 10 0 6 5 10 10 10 6 0 10 -4 10 -10z m466 -111 c3 -5 -8
-9 -25 -9 -28 0 -46 11 -35 22 7 7 53 -3 60 -13z m104 17 c0 -3 -4 -8 -10 -11
-5 -3 -10 -1 -10 4 0 6 5 11 10 11 6 0 10 -2 10 -4z m56 -15 c-18 -20 -39 -23
-44 -6 -2 6 7 13 20 17 38 10 42 9 24 -11z m1286 -186 c-2 -14 -6 -25 -8 -25
-2 0 -4 11 -4 25 0 14 4 25 9 25 4 0 6 -11 3 -25z m-3 -117 c0 -18 1 -50 3
-70 5 -47 -9 -89 -22 -68 -5 8 -6 19 -2 25 4 5 5 18 4 28 -2 9 2 17 7 17 6 0
11 5 11 11 0 6 -6 9 -13 6 -15 -6 -18 13 -10 56 7 37 22 34 22 -5z m-63 -180
c-4 -13 -8 -30 -9 -38 -1 -8 -11 -34 -22 -57 -14 -33 -24 -43 -42 -43 -39 0
-31 49 17 100 22 24 40 47 40 52 0 4 5 8 11 8 7 0 9 -9 5 -22z m-413 -27 c5
-19 -8 -50 -17 -41 -5 6 -9 30 -7 48 2 19 18 14 24 -7z m437 -15 c0 -3 -4 -8
-10 -11 -5 -3 -10 -1 -10 4 0 6 5 11 10 11 6 0 10 -2 10 -4z m-18 -56 c-2 -16
-8 -28 -12 -25 -5 3 -11 -1 -14 -7 -3 -7 -3 0 0 17 4 23 17 42 30 45 0 0 -1
-13 -4 -30z m-2 -70 c0 -5 -8 -10 -17 -10 -15 0 -16 2 -3 10 19 12 20 12 20 0z
m-1740 -20 c0 -5 -5 -10 -11 -10 -5 0 -7 5 -4 10 3 6 8 10 11 10 2 0 4 -4 4
-10z m-845 -79 c22 -14 43 -30 47 -36 12 -16 9 -47 -6 -64 -8 -9 -21 -28 -28
-43 -14 -26 -15 -26 -67 79 l-52 105 33 -7 c18 -4 50 -19 73 -34z m-659 -48
c71 -130 166 -257 270 -365 l55 -57 -38 -10 c-133 -36 -188 -44 -288 -45 -96
-1 -116 2 -157 22 -75 37 -92 93 -63 207 21 81 152 315 176 315 4 0 24 -30 45
-67z m2277 -140 c3 -16 2 -30 -1 -33 -4 -3 -21 -39 -38 -80 -28 -69 -33 -75
-60 -75 -26 0 -29 3 -27 30 4 78 17 110 51 124 17 8 32 18 32 23 0 10 22 37
31 38 4 0 9 -12 12 -27z m-1483 -266 c0 -4 -6 -2 -14 5 -8 7 -12 17 -9 22 5 8
23 -12 23 -27z m-344 -36 c-8 -12 23 -72 48 -94 20 -18 20 -18 1 -8 -11 5 -40
28 -65 50 -37 34 -42 42 -30 51 19 12 53 13 46 1z m129 -129 c-3 -3 -11 0 -18
7 -9 10 -8 11 6 5 10 -3 15 -9 12 -12z m2120 -32 c-3 -5 -10 -10 -16 -10 -5 0
-9 5 -9 10 0 6 7 10 16 10 8 0 12 -4 9 -10z m-35 -69 c0 -5 -7 -14 -15 -21 -8
-7 -15 -17 -15 -23 0 -21 -141 -206 -195 -255 -223 -204 -522 -244 -841 -111
-67 28 -274 144 -274 154 0 3 26 1 58 -3 31 -4 145 -7 252 -6 171 1 211 4 325
28 210 43 430 125 565 211 43 27 140 45 140 26z"/>
<path d="M3852 4638 c-7 -7 -12 -22 -12 -35 0 -13 -17 -39 -40 -62 -43 -43
-53 -88 -25 -111 17 -14 11 -50 -11 -63 -7 -4 -16 -28 -20 -52 -4 -29 -11 -45
-20 -45 -8 0 -17 -7 -21 -16 -3 -8 -12 -13 -19 -10 -7 3 -27 0 -45 -6 -27 -9
-29 -12 -16 -25 12 -12 18 -13 36 -1 18 11 23 11 30 0 6 -11 16 -10 51 4 33
14 45 15 48 5 8 -23 42 20 42 53 0 47 15 64 40 49 26 -17 30 -16 30 2 0 8 -4
15 -10 15 -5 0 -10 11 -10 25 0 27 33 42 70 32 11 -3 24 1 31 9 17 21 -15 29
-60 14 -46 -15 -81 -1 -81 33 0 12 -3 31 -6 43 -4 14 7 36 35 72 25 31 38 57
35 67 -7 18 -35 20 -52 3z m18 -278 c0 -11 -7 -20 -15 -20 -13 0 -13 3 -3 20
7 11 14 20 15 20 2 0 3 -9 3 -20z m-80 -46 c0 -8 -4 -12 -10 -9 -5 3 -10 10
-10 16 0 5 5 9 10 9 6 0 10 -7 10 -16z"/>
<path d="M5024 4088 l-19 -23 23 19 c21 18 27 26 19 26 -2 0 -12 -10 -23 -22z"/>
<path d="M4400 3960 c-11 -11 -24 -20 -29 -20 -28 0 -20 -55 17 -114 17 -27
21 -41 13 -49 -19 -19 -12 -46 17 -60 43 -21 63 -12 56 26 -3 17 -10 35 -17
39 -9 6 -7 12 6 22 21 16 22 30 2 22 -9 -3 -15 0 -15 9 0 8 -4 15 -8 15 -4 0
-15 13 -25 28 -16 28 -16 29 6 40 12 6 31 12 42 14 19 3 19 4 -3 26 -27 27
-37 27 -62 2z"/>
<path d="M4137 3955 c-16 -12 -16 -13 -1 -19 9 -4 19 -4 22 -1 3 3 -1 5 -9 6
-8 0 -6 3 5 8 11 4 15 10 10 13 -5 4 -17 0 -27 -7z"/>
<path d="M4003 3906 c-30 -53 -34 -83 -6 -48 13 15 13 15 4 -5 -14 -29 -14
-30 9 -36 10 -3 27 1 37 9 24 18 62 17 106 -1 26 -11 43 -12 62 -5 32 12 31
17 -2 47 -57 50 -68 55 -98 41 -23 -10 -29 -10 -33 0 -2 6 -16 12 -30 12 l-27
1 30 14 c17 7 25 14 18 14 -6 1 -17 3 -25 6 -9 4 -25 -14 -45 -49z m47 -6 c5
8 10 10 10 5 0 -13 -20 -35 -32 -35 -4 0 -8 10 -8 23 0 18 2 19 10 7 9 -13 11
-13 20 0z m74 -16 c-18 -14 -17 -15 17 -10 27 5 40 1 57 -14 26 -24 27 -30 7
-30 -8 0 -14 6 -12 13 1 7 -10 13 -28 14 -26 2 -27 1 -10 -7 17 -9 17 -10 -5
-4 -14 3 -35 7 -46 8 -14 1 -20 6 -16 16 4 12 2 13 -9 3 -19 -18 -33 -16 -15
2 8 8 21 13 29 10 7 -3 20 1 27 10 7 8 15 13 18 10 3 -3 -3 -12 -14 -21z"/>
<path d="M3965 3800 c-3 -5 1 -10 10 -10 9 0 13 5 10 10 -3 6 -8 10 -10 10 -2
0 -7 -4 -10 -10z"/>
<path d="M4096 3482 c-5 -9 34 -102 43 -102 3 0 12 4 19 9 10 6 7 18 -15 54
-28 46 -37 54 -47 39z"/>
<path d="M2589 5233 c-13 -16 -12 -17 4 -4 9 7 17 15 17 17 0 8 -8 3 -21 -13z"/>
<path d="M2525 5185 c-22 -19 -37 -34 -33 -35 4 0 24 16 45 35 49 45 40 45
-12 0z"/>
<path d="M2445 5139 c-4 -6 -5 -12 -2 -15 2 -3 7 2 10 11 7 17 1 20 -8 4z"/>
<path d="M2361 4964 c-12 -15 -21 -30 -21 -34 0 -3 -18 -18 -40 -33 -27 -17
-40 -21 -40 -12 0 7 7 15 15 19 8 3 15 11 15 17 0 7 7 21 17 31 9 10 14 20 11
23 -7 7 -96 -106 -162 -205 -110 -165 -202 -372 -250 -565 -27 -106 -9 -70 34
67 23 73 50 148 61 166 11 19 17 37 15 40 -2 4 14 41 36 82 34 66 42 74 22 25
-3 -8 -2 -15 3 -15 14 0 33 47 27 64 -9 24 74 135 93 123 4 -3 16 6 26 19 17
23 17 23 0 17 -10 -4 -29 -13 -42 -22 -23 -15 -23 -15 -10 7 8 12 19 22 26 22
7 0 15 11 19 25 6 26 34 56 34 37 0 -29 119 70 133 111 9 24 2 21 -22 -9z"/>
<path d="M2322 4857 c-23 -23 -31 -39 -26 -51 4 -11 1 -22 -7 -28 -11 -8 -10
-9 4 -4 11 3 17 0 17 -9 0 -18 20 -20 20 -2 1 6 7 38 14 70 8 31 13 57 12 57
-1 0 -17 -15 -34 -33z"/>
<path d="M4734 4770 c4 -24 12 -50 18 -57 6 -7 8 -24 5 -38 -3 -16 0 -24 7
-22 13 5 9 57 -5 72 -5 5 -9 24 -9 41 0 18 -5 36 -12 40 -8 5 -9 -5 -4 -36z"/>
<path d="M2250 4760 c0 -5 5 -10 10 -10 6 0 10 5 10 10 0 6 -4 10 -10 10 -5 0
-10 -4 -10 -10z"/>
<path d="M2237 4653 c-5 -7 -16 -13 -25 -13 -14 0 -17 -11 -19 -52 -1 -43 -6
-57 -27 -75 -25 -21 -25 -23 -11 -57 19 -44 19 -50 0 -42 -9 3 -18 -1 -21 -9
-10 -26 -25 -16 -18 13 l6 27 -16 -25 c-53 -88 -78 -151 -72 -183 6 -34 57
-93 69 -80 4 3 7 -7 7 -23 0 -39 10 -74 21 -74 5 0 9 18 9 40 0 23 7 52 16 66
12 17 15 38 12 69 -3 24 -2 47 3 52 4 4 9 28 11 53 3 39 6 45 27 48 31 5 60
-31 61 -75 0 -17 5 -35 10 -38 6 -4 10 18 10 59 0 57 -3 68 -28 95 -21 23 -33
29 -51 24 -31 -8 -24 17 9 34 13 6 28 26 35 45 7 18 15 40 19 49 4 9 1 23 -7
31 -8 8 -17 23 -19 34 -2 14 -6 15 -11 7z m23 -61 c0 -5 -7 -17 -15 -28 -15
-19 -20 -8 -9 20 6 17 24 22 24 8z"/>
<path d="M2145 4619 c-12 -21 -14 -34 -7 -37 8 -2 8 -11 2 -28 -6 -14 -6 -23
-1 -20 15 10 39 92 31 106 -6 9 -13 3 -25 -21z"/>
<path d="M2342 4570 c0 -19 2 -27 5 -17 2 9 2 25 0 35 -3 9 -5 1 -5 -18z"/>
<path d="M1542 4160 c0 -14 2 -19 5 -12 2 6 2 18 0 25 -3 6 -5 1 -5 -13z"/>
<path d="M2262 4015 l-24 -25 30 13 c29 12 41 29 25 34 -4 1 -19 -9 -31 -22z"/>
<path d="M1542 3990 c0 -14 2 -19 5 -12 2 6 2 18 0 25 -3 6 -5 1 -5 -13z"/>
<path d="M2290 3980 c-9 -6 -10 -10 -3 -10 6 0 14 -10 16 -22 3 -17 5 -14 6
10 1 36 2 35 -19 22z"/>
<path d="M2032 3960 c-16 -26 -16 -25 13 -26 26 -2 29 3 19 30 -8 21 -17 20
-32 -4z"/>
<path d="M2086 3893 c9 -37 14 -42 14 -14 0 12 4 19 10 16 6 -3 7 1 4 9 -3 9
-12 16 -20 16 -11 0 -13 -7 -8 -27z"/>
<path d="M1871 3894 c0 -11 3 -14 6 -6 3 7 2 16 -1 19 -3 4 -6 -2 -5 -13z"/>
<path d="M2050 3893 c0 -10 -3 -28 -6 -40 -4 -13 -2 -23 4 -23 5 0 12 18 14
40 2 22 0 40 -4 40 -5 0 -8 -8 -8 -17z"/>
<path d="M2246 3881 c-16 -16 -26 -35 -24 -41 2 -7 -8 -25 -23 -40 -19 -18
-30 -42 -35 -76 -4 -29 -17 -61 -31 -78 -22 -27 -24 -35 -17 -94 5 -47 4 -63
-5 -58 -6 4 -11 18 -11 32 0 13 -9 33 -20 44 -22 22 -40 26 -40 9 0 -6 -7 -8
-16 -5 -41 16 -56 -53 -30 -139 13 -44 39 -54 44 -17 6 43 27 17 25 -32 -3
-40 0 -46 17 -46 23 0 40 -28 40 -68 0 -33 12 -46 53 -56 20 -5 27 -3 27 8 0
7 9 16 20 19 11 3 20 1 20 -4 0 -4 7 -6 15 -3 8 4 17 -1 21 -10 4 -10 18 -16
39 -16 27 0 43 -10 81 -50 26 -27 54 -50 62 -50 21 0 72 -39 72 -56 0 -8 5
-14 10 -14 13 0 13 0 -14 61 -63 143 -155 476 -191 692 -18 106 -19 107 -38
90 -19 -17 -20 -17 -15 5 8 30 -3 28 -36 -7z m-66 -476 c10 -12 10 -15 -4 -15
-9 0 -19 6 -22 14 -3 8 -19 20 -35 27 -21 8 -26 14 -18 20 13 8 54 -16 79 -46z
m74 -41 c4 -10 -3 -14 -23 -14 -24 0 -28 4 -24 19 5 21 38 18 47 -5z"/>
<path d="M2138 3863 c7 -3 16 -2 19 1 4 3 -2 6 -13 5 -11 0 -14 -3 -6 -6z"/>
<path d="M2095 3830 c-3 -5 -2 -10 4 -10 5 0 13 5 16 10 3 6 2 10 -4 10 -5 0
-13 -4 -16 -10z"/>
<path d="M2541 3016 c-16 -19 -11 -29 8 -17 7 5 12 14 9 21 -3 9 -8 7 -17 -4z"/>
</g>
</svg>
